<mxfile host="app.diagrams.net" modified="2023-04-14T15:26:20.856Z" agent="Mozilla/5.0 (Windows NT 10.0; Win64; x64) AppleWebKit/537.36 (KHTML, like Gecko) Chrome/112.0.0.0 Safari/537.36" etag="BtLJgEj3a5sbiIPxDLZI" version="21.1.7" type="device">
  <diagram name="Page-1" id="ap8KMKJoZVzwejJ5fVCv">
    <mxGraphModel dx="1050" dy="545" grid="1" gridSize="10" guides="1" tooltips="1" connect="1" arrows="1" fold="1" page="1" pageScale="1" pageWidth="850" pageHeight="1100" math="0" shadow="0">
      <root>
        <mxCell id="0" />
        <mxCell id="1" parent="0" />
        <mxCell id="nP9M1XI74gTC-gEkKGo9-7" value="" style="edgeStyle=orthogonalEdgeStyle;rounded=0;orthogonalLoop=1;jettySize=auto;html=1;" edge="1" parent="1" source="nP9M1XI74gTC-gEkKGo9-1" target="nP9M1XI74gTC-gEkKGo9-4">
          <mxGeometry relative="1" as="geometry" />
        </mxCell>
        <mxCell id="nP9M1XI74gTC-gEkKGo9-1" value="PROJECT STARTS" style="rounded=1;whiteSpace=wrap;html=1;" vertex="1" parent="1">
          <mxGeometry x="80" y="20" width="120" height="60" as="geometry" />
        </mxCell>
        <mxCell id="nP9M1XI74gTC-gEkKGo9-2" value="PROJECT ENDS" style="rounded=1;whiteSpace=wrap;html=1;" vertex="1" parent="1">
          <mxGeometry x="680" y="520" width="120" height="60" as="geometry" />
        </mxCell>
        <mxCell id="nP9M1XI74gTC-gEkKGo9-9" value="" style="edgeStyle=orthogonalEdgeStyle;rounded=0;orthogonalLoop=1;jettySize=auto;html=1;" edge="1" parent="1" source="nP9M1XI74gTC-gEkKGo9-3" target="nP9M1XI74gTC-gEkKGo9-5">
          <mxGeometry relative="1" as="geometry" />
        </mxCell>
        <mxCell id="nP9M1XI74gTC-gEkKGo9-3" value="CREATE BOARD" style="rounded=0;whiteSpace=wrap;html=1;" vertex="1" parent="1">
          <mxGeometry x="80" y="250" width="120" height="60" as="geometry" />
        </mxCell>
        <mxCell id="nP9M1XI74gTC-gEkKGo9-8" value="" style="edgeStyle=orthogonalEdgeStyle;rounded=0;orthogonalLoop=1;jettySize=auto;html=1;" edge="1" parent="1" source="nP9M1XI74gTC-gEkKGo9-4" target="nP9M1XI74gTC-gEkKGo9-3">
          <mxGeometry relative="1" as="geometry" />
        </mxCell>
        <mxCell id="nP9M1XI74gTC-gEkKGo9-4" value="CREATE PLAYERS" style="rounded=0;whiteSpace=wrap;html=1;" vertex="1" parent="1">
          <mxGeometry x="80" y="140" width="120" height="60" as="geometry" />
        </mxCell>
        <mxCell id="nP9M1XI74gTC-gEkKGo9-11" value="" style="edgeStyle=orthogonalEdgeStyle;rounded=0;orthogonalLoop=1;jettySize=auto;html=1;" edge="1" parent="1" source="nP9M1XI74gTC-gEkKGo9-5">
          <mxGeometry relative="1" as="geometry">
            <mxPoint x="260" y="390" as="targetPoint" />
          </mxGeometry>
        </mxCell>
        <mxCell id="nP9M1XI74gTC-gEkKGo9-5" value="CREATE SHIPS" style="rounded=0;whiteSpace=wrap;html=1;" vertex="1" parent="1">
          <mxGeometry x="80" y="360" width="120" height="60" as="geometry" />
        </mxCell>
        <mxCell id="nP9M1XI74gTC-gEkKGo9-56" value="" style="edgeStyle=orthogonalEdgeStyle;rounded=0;orthogonalLoop=1;jettySize=auto;html=1;" edge="1" parent="1" source="nP9M1XI74gTC-gEkKGo9-6" target="nP9M1XI74gTC-gEkKGo9-26">
          <mxGeometry relative="1" as="geometry" />
        </mxCell>
        <mxCell id="nP9M1XI74gTC-gEkKGo9-59" value="" style="edgeStyle=orthogonalEdgeStyle;rounded=0;orthogonalLoop=1;jettySize=auto;html=1;" edge="1" parent="1" source="nP9M1XI74gTC-gEkKGo9-6" target="nP9M1XI74gTC-gEkKGo9-41">
          <mxGeometry relative="1" as="geometry" />
        </mxCell>
        <mxCell id="nP9M1XI74gTC-gEkKGo9-6" value="PLAYER 2 SHOOTS" style="rounded=0;whiteSpace=wrap;html=1;" vertex="1" parent="1">
          <mxGeometry x="455" y="250" width="120" height="60" as="geometry" />
        </mxCell>
        <mxCell id="nP9M1XI74gTC-gEkKGo9-16" value="" style="edgeStyle=orthogonalEdgeStyle;rounded=0;orthogonalLoop=1;jettySize=auto;html=1;" edge="1" parent="1" source="nP9M1XI74gTC-gEkKGo9-14" target="nP9M1XI74gTC-gEkKGo9-15">
          <mxGeometry relative="1" as="geometry" />
        </mxCell>
        <mxCell id="nP9M1XI74gTC-gEkKGo9-14" value="PLAYER 1&lt;br&gt;PLACES 5 SHIPS ON BOARD" style="rhombus;whiteSpace=wrap;html=1;" vertex="1" parent="1">
          <mxGeometry x="260" y="335" width="110" height="110" as="geometry" />
        </mxCell>
        <mxCell id="nP9M1XI74gTC-gEkKGo9-19" value="" style="edgeStyle=orthogonalEdgeStyle;rounded=0;orthogonalLoop=1;jettySize=auto;html=1;" edge="1" parent="1" source="nP9M1XI74gTC-gEkKGo9-15" target="nP9M1XI74gTC-gEkKGo9-18">
          <mxGeometry relative="1" as="geometry" />
        </mxCell>
        <mxCell id="nP9M1XI74gTC-gEkKGo9-15" value="PLAYER 2&lt;br&gt;&amp;nbsp;PLACES 5 SHIPS ON BOARD" style="rhombus;whiteSpace=wrap;html=1;" vertex="1" parent="1">
          <mxGeometry x="260" y="210" width="110" height="110" as="geometry" />
        </mxCell>
        <mxCell id="nP9M1XI74gTC-gEkKGo9-21" value="" style="edgeStyle=orthogonalEdgeStyle;rounded=0;orthogonalLoop=1;jettySize=auto;html=1;" edge="1" parent="1" source="nP9M1XI74gTC-gEkKGo9-18" target="nP9M1XI74gTC-gEkKGo9-20">
          <mxGeometry relative="1" as="geometry" />
        </mxCell>
        <mxCell id="nP9M1XI74gTC-gEkKGo9-18" value="GAME STARTS" style="rhombus;whiteSpace=wrap;html=1;" vertex="1" parent="1">
          <mxGeometry x="255" y="20" width="120" height="120" as="geometry" />
        </mxCell>
        <mxCell id="nP9M1XI74gTC-gEkKGo9-38" value="" style="edgeStyle=orthogonalEdgeStyle;rounded=0;orthogonalLoop=1;jettySize=auto;html=1;" edge="1" parent="1" source="nP9M1XI74gTC-gEkKGo9-20" target="nP9M1XI74gTC-gEkKGo9-24">
          <mxGeometry relative="1" as="geometry" />
        </mxCell>
        <mxCell id="nP9M1XI74gTC-gEkKGo9-54" value="" style="edgeStyle=orthogonalEdgeStyle;rounded=0;orthogonalLoop=1;jettySize=auto;html=1;" edge="1" parent="1" source="nP9M1XI74gTC-gEkKGo9-20" target="nP9M1XI74gTC-gEkKGo9-30">
          <mxGeometry relative="1" as="geometry" />
        </mxCell>
        <mxCell id="nP9M1XI74gTC-gEkKGo9-20" value="PLAYER 1 SHOOTS" style="whiteSpace=wrap;html=1;" vertex="1" parent="1">
          <mxGeometry x="455" y="50" width="120" height="60" as="geometry" />
        </mxCell>
        <mxCell id="nP9M1XI74gTC-gEkKGo9-23" value="WHILE" style="text;html=1;align=center;verticalAlign=middle;resizable=0;points=[];autosize=1;strokeColor=none;fillColor=none;" vertex="1" parent="1">
          <mxGeometry x="370" y="55" width="60" height="30" as="geometry" />
        </mxCell>
        <mxCell id="nP9M1XI74gTC-gEkKGo9-24" value="PLAYER 1 HITS" style="whiteSpace=wrap;html=1;" vertex="1" parent="1">
          <mxGeometry x="620" y="50" width="120" height="60" as="geometry" />
        </mxCell>
        <mxCell id="nP9M1XI74gTC-gEkKGo9-26" value="PLAYER 2&amp;nbsp;MISSES" style="whiteSpace=wrap;html=1;" vertex="1" parent="1">
          <mxGeometry x="455" y="350" width="120" height="60" as="geometry" />
        </mxCell>
        <mxCell id="nP9M1XI74gTC-gEkKGo9-28" value="PLAYER 1 HITS" style="whiteSpace=wrap;html=1;" vertex="1" parent="1">
          <mxGeometry x="435" y="510" width="120" height="60" as="geometry" />
        </mxCell>
        <mxCell id="nP9M1XI74gTC-gEkKGo9-55" value="" style="edgeStyle=orthogonalEdgeStyle;rounded=0;orthogonalLoop=1;jettySize=auto;html=1;" edge="1" parent="1" source="nP9M1XI74gTC-gEkKGo9-30" target="nP9M1XI74gTC-gEkKGo9-6">
          <mxGeometry relative="1" as="geometry" />
        </mxCell>
        <mxCell id="nP9M1XI74gTC-gEkKGo9-30" value="PLAYER 1 MISSES" style="whiteSpace=wrap;html=1;" vertex="1" parent="1">
          <mxGeometry x="455" y="150" width="120" height="60" as="geometry" />
        </mxCell>
        <mxCell id="nP9M1XI74gTC-gEkKGo9-37" value="YES" style="text;html=1;align=center;verticalAlign=middle;resizable=0;points=[];autosize=1;strokeColor=none;fillColor=none;" vertex="1" parent="1">
          <mxGeometry x="465" y="110" width="50" height="30" as="geometry" />
        </mxCell>
        <mxCell id="nP9M1XI74gTC-gEkKGo9-39" value="YES" style="text;html=1;align=center;verticalAlign=middle;resizable=0;points=[];autosize=1;strokeColor=none;fillColor=none;" vertex="1" parent="1">
          <mxGeometry x="570" y="50" width="50" height="30" as="geometry" />
        </mxCell>
        <mxCell id="nP9M1XI74gTC-gEkKGo9-41" value="PLAYER 2 HITS" style="whiteSpace=wrap;html=1;" vertex="1" parent="1">
          <mxGeometry x="630" y="250" width="120" height="60" as="geometry" />
        </mxCell>
        <mxCell id="nP9M1XI74gTC-gEkKGo9-43" value="" style="endArrow=classic;html=1;rounded=0;entryX=0.5;entryY=0;entryDx=0;entryDy=0;" edge="1" parent="1">
          <mxGeometry width="50" height="50" relative="1" as="geometry">
            <mxPoint x="680" y="50" as="sourcePoint" />
            <mxPoint x="515" y="50" as="targetPoint" />
            <Array as="points">
              <mxPoint x="680" y="20" />
              <mxPoint x="515" y="20" />
            </Array>
          </mxGeometry>
        </mxCell>
        <mxCell id="nP9M1XI74gTC-gEkKGo9-45" value="" style="edgeStyle=orthogonalEdgeStyle;rounded=0;orthogonalLoop=1;jettySize=auto;html=1;" edge="1" parent="1">
          <mxGeometry relative="1" as="geometry">
            <mxPoint x="150" y="210" as="sourcePoint" />
            <mxPoint x="150" y="260" as="targetPoint" />
            <Array as="points">
              <mxPoint x="150" y="220" />
              <mxPoint x="150" y="220" />
            </Array>
          </mxGeometry>
        </mxCell>
        <mxCell id="nP9M1XI74gTC-gEkKGo9-47" value="" style="endArrow=classic;html=1;rounded=0;exitX=0.567;exitY=-0.043;exitDx=0;exitDy=0;exitPerimeter=0;" edge="1" parent="1" source="nP9M1XI74gTC-gEkKGo9-41">
          <mxGeometry width="50" height="50" relative="1" as="geometry">
            <mxPoint x="695" y="260" as="sourcePoint" />
            <mxPoint x="520" y="230" as="targetPoint" />
            <Array as="points">
              <mxPoint x="698" y="230" />
              <mxPoint x="530" y="230" />
            </Array>
          </mxGeometry>
        </mxCell>
        <mxCell id="nP9M1XI74gTC-gEkKGo9-57" value="YES" style="text;html=1;align=center;verticalAlign=middle;resizable=0;points=[];autosize=1;strokeColor=none;fillColor=none;" vertex="1" parent="1">
          <mxGeometry x="465" y="310" width="50" height="30" as="geometry" />
        </mxCell>
        <mxCell id="nP9M1XI74gTC-gEkKGo9-58" value="YES" style="text;html=1;align=center;verticalAlign=middle;resizable=0;points=[];autosize=1;strokeColor=none;fillColor=none;" vertex="1" parent="1">
          <mxGeometry x="575" y="200" width="50" height="30" as="geometry" />
        </mxCell>
      </root>
    </mxGraphModel>
  </diagram>
</mxfile>
